<!DOCTYPE svg PUBLIC "-//W3C//DTD SVG 1.1//EN" "http://www.w3.org/Graphics/SVG/1.1/DTD/svg11.dtd">
<!-- drawn by AlgaeGraphix -->
<svg xmlns:dc="http://purl.org/dc/elements/1.1/" xmlns:cc="http://web.resource.org/cc/" xmlns:rdf="http://www.w3.org/1999/02/22-rdf-syntax-ns#" xmlns:svg="http://www.w3.org/2000/svg" xmlns="http://www.w3.org/2000/svg" xmlns:xlink="http://www.w3.org/1999/xlink" width="500" height="500">
<title>ICTS</title>
<g transform="scale(0.8)translate(50,50)">
 <path d="M 120,435 L 120,450 90,450 Q 60,450 50,400 L 30,320 L 60,60 C 60,40 80,20 100,20 C 100,20 250,0 250,0 L 250,435 z" stroke="none" fill="#000000" id="main"/>
 <use xlink:href="#main" transform="matrix(-1 0 0 1 500 0)"/>
 <g stroke="none" fill="white">
  <path d="M 74,293 Q 59 293 59,277 L 78,90 Q 80 74 94,74 L 145,74 Q 160 74 160,90 L 160,277 Q 160 293 145,293 Z"/>
  <path d="M 426,293 Q 441 293 441,277 L 422,90 Q 420 74 406,74 L 355,74 Q 340 74 340,90 L 340,277 Q 340 293 355,293 Z"/>
  <rect x="223" y="121" rx="16" ry="16" width="54" height="109"/>
  <circle cx="102" cy="43" r="11"/>
  <circle cx="398" cy="43" r="11"/>
  <circle cx="84" cy="373" r="18"/>
  <circle cx="416" cy="373" r="18"/>
 </g>
 <g fill="none">
  <rect x="199" y="76" width="102" height="310" stroke="white" stroke-width="15"/>
  <polyline points="20,406 20,488 480,488 480,406" stroke="black" stroke-width="24"/>
 </g>
</g>
</svg>